# xmcd
#
# Track frame offsets: 
#        182
#        9965
#        22205
#        33712
#        45577
#        56637
#        69840
#        80812
#        95192
#        108177
#
# Disc length: 1617 seconds
#
# Revision: 6
# Processed by: cddbd v1.5.2PL0 Copyright (c) Steve Scherf et al.
# Submitted via: ExactAudioCopy v0.90b4
#
DISCID=81064f0a
DTITLE=Otis Redding - I've Been Loving  You Too Long
DYEAR=1997
DGENRE=R&B
TTITLE0=Respect
TTITLE1=Mr. Pitiful
TTITLE2=These Arms Of Mine
TTITLE3=Security
TTITLE4=That's How Strong My Love Is
TTITLE5=Satisfaction
TTITLE6=Pain In My Heart
TTITLE7=My Lover's Prayer
TTITLE8=Glory Of Love
TTITLE9=I've Been Loving You Too Long (To Stop Now)
EXTD=YEAR: 1997
EXTT0=
EXTT1=
EXTT2=
EXTT3=
EXTT4=
EXTT5=
EXTT6=
EXTT7=
EXTT8=
EXTT9=
PLAYORDER=
